<svg width="20" height="20" viewBox="0 0 20 20" fill="none" xmlns="http://www.w3.org/2000/svg">
<path opacity="0.4" d="M18.334 5.37234C18.334 3.32984 16.6421 1.6665 14.5635 1.6665H10.4293C8.35494 1.6665 6.66732 3.32484 6.66732 5.364V14.6273C6.66732 16.6707 8.35918 18.3332 10.4386 18.3332H14.5712C16.6464 18.3332 18.334 16.6748 18.334 14.6357V13.8523V5.37234Z" fill="#343434"/>
<path d="M1.85098 9.54554L4.22247 7.12137C4.46758 6.87137 4.86201 6.87137 5.1063 7.12304C5.34978 7.37471 5.34897 7.78054 5.10468 8.03054L3.80531 9.35804H5.05111H12.043C12.388 9.35804 12.668 9.64554 12.668 9.99971C12.668 10.3547 12.388 10.6414 12.043 10.6414H3.80531L5.10468 11.9689C5.34897 12.2189 5.34978 12.6247 5.1063 12.8764C4.98375 13.0022 4.82387 13.0655 4.66317 13.0655C4.5041 13.0655 4.34421 13.0022 4.22247 12.878L1.85098 10.4547C1.7333 10.3339 1.66675 10.1705 1.66675 9.99971C1.66675 9.82971 1.7333 9.66637 1.85098 9.54554Z" fill="#343434"/>
</svg>
